<svg width="512px" height="auto" viewBox="0 0 535 441" fill="none" xmlns="http://www.w3.org/2000/svg">
<path d="M220.604 305.662C219.654 313.281 215.567 323.62 200.329 323.62H182.065L186.426 287.696H204.657C219.904 287.696 221.553 298.035 220.579 305.662H220.604ZM253.374 341.723C251.877 354.379 252.698 364.452 266.029 364.452C271.319 364.433 276.517 363.074 281.139 360.501L285.765 322.944C281.521 320.305 276.611 318.934 271.613 318.994C258.273 318.994 255.007 329.067 253.374 341.723V341.723ZM420.095 262.875V418.092C420.095 424.067 417.722 429.797 413.497 434.022C409.272 438.247 403.542 440.62 397.568 440.62H137.138C131.163 440.62 125.433 438.247 121.208 434.022C116.984 429.797 114.61 424.067 114.61 418.092V262.851C114.61 256.877 116.984 251.147 121.208 246.922C125.433 242.697 131.163 240.324 137.138 240.324H397.56C403.534 240.324 409.264 242.697 413.489 246.922C417.714 251.147 420.087 256.877 420.087 262.851L420.095 262.875ZM237.21 305.662C239.253 288.919 232.036 273.681 205.775 273.681H172.973L160.454 375.748H175.693L180.327 337.507H197.883C224.144 337.507 235.166 322.397 237.21 305.662V305.662ZM302.935 307.698H293.956L290.826 313.145C285.379 308.792 278.709 306.065 269.594 306.065C249.729 306.065 240.742 319.404 238.022 341.723C235.303 364.041 241.015 377.381 260.888 377.381C269.055 377.432 277.038 374.959 283.746 370.301L285.653 375.748H294.632L302.935 307.698ZM374.243 307.698H359.005L352.472 360.501C347.524 363.146 341.991 364.504 336.38 364.452C329.139 364.452 326.034 361.322 326.854 354.379L332.567 307.714H317.361L311.503 355.754C309.894 368.821 314.907 377.397 332.189 377.397C338.722 377.307 345.147 375.724 350.975 372.771L349.744 382.426C348.795 391.276 344.981 398.517 329.88 398.517C322.714 398.461 315.617 397.126 308.921 394.575L307.151 408.051C313.949 410.332 321.076 411.479 328.246 411.446C356.688 411.446 363.221 397.294 365.256 380.559L374.243 307.698ZM200.57 224.997H351.289L344.531 196.475C344.192 195.043 343.567 193.694 342.694 192.51C341.82 191.326 340.717 190.33 339.449 189.583C338.181 188.836 336.775 188.353 335.316 188.163C333.857 187.973 332.375 188.08 330.958 188.477L200.57 224.997Z" fill="#5F0F78"/>
<path d="M113.403 126.204H78.8956V113.21H78.4612C70.9868 128.811 56.038 130.106 46.8096 130.106C39.3352 130.106 21.7554 128.352 10.9903 114.723C1.33557 102.654 0 93.8444 0 77.1417V4.1998H36.479V71.6706C36.479 80.022 36.479 96.065 56.0379 96.065C66.5938 96.065 76.9164 90.5779 76.9164 71.2362V4.1998H113.403V126.204Z" fill="#FF3A00"/>
<path d="M247.903 87.9389C241.965 101.56 233.42 112.116 223.066 119.148C212.93 126.364 200.782 130.209 188.341 130.138C153.398 130.138 123.726 101.785 123.726 65.5238C123.726 31.4585 150.542 0.0241394 187.681 0.0241394C224.82 0.0241394 252.046 29.4793 252.046 66.618C252.065 69.8569 251.771 73.0902 251.169 76.2728H159.771C161.967 90.7549 174.06 99.3477 188.341 99.3477C199.548 99.3477 205.486 94.295 210.539 87.9229L247.903 87.9389ZM215.591 51.6772C214.055 44.4361 206.805 30.7987 187.898 30.7987C168.991 30.7987 161.75 44.42 160.213 51.6772H215.591Z" fill="#FF3A00"/>
<path d="M262.843 4.19981H297.118V17.5878H297.778C305.019 8.35137 317.087 0 335.801 0C379.095 0 395.339 38.0237 395.339 66.3766C395.339 101.536 370.719 130.331 335.994 130.331C314.022 130.331 303.691 119.784 299.29 115.165V165.628L262.843 166.835V4.19981ZM358.884 65.2985C358.884 50.8163 348.336 34.0894 328.311 34.0894C308.285 34.0894 297.737 50.7922 297.737 65.2985C297.737 80.6818 309.17 96.2903 328.311 96.2903C347.451 96.2903 358.884 80.6818 358.884 65.2985Z" fill="#FF3A00"/>
<path d="M534.698 126.204H498.259V112.993H497.817C491.662 124.86 476.496 130.356 462.215 130.356C423.531 130.356 400.899 100.024 400.899 65.0812C400.899 25.0783 429.686 0.0241394 462.215 0.0241394C482.216 0.0241394 493.424 9.67892 497.817 17.1694H498.259V4.19981L534.738 4.05499L534.698 126.204ZM467.686 96.2903C490.543 96.2903 498.259 76.9808 498.259 65.0812C498.259 50.3577 488.146 34.0894 467.493 34.0894C446.574 34.0894 437.378 51.6692 437.378 65.5157C437.378 76.9486 445.729 96.2903 467.71 96.2903" fill="#FF3A00"/>
</svg>
