<svg width="100%" height="auto" viewBox="0 0 358 112" fill="none" xmlns="http://www.w3.org/2000/svg">
<path d="M75.8817 84.412H52.8371V75.7544H52.5825C47.617 86.1945 37.5589 87.0857 31.4476 87.0857C26.4822 87.0857 14.6416 85.9399 7.51178 76.7729C0.891228 68.6246 0 62.7679 0 51.5639V2.80103H24.4451V47.999C24.4451 53.601 24.4451 64.2958 37.5589 64.2958C44.5614 64.2958 51.5639 60.6035 51.5639 47.6171V2.80103H76.009V84.412H75.8817Z" fill="#E12619"/>
<path d="M165.896 58.821C161.949 67.988 156.219 74.9905 149.217 79.7012C142.469 84.5393 134.321 87.0857 125.918 87.0857C102.491 87.0857 82.6295 68.1153 82.6295 43.7975C82.6295 21.0075 100.581 0 125.408 0C150.236 0 168.569 19.7343 168.569 44.5614C168.569 47.7444 168.315 49.1449 167.933 51.0546H106.947C108.475 60.7308 116.496 66.4601 126.045 66.4601C133.557 66.4601 137.504 63.0225 140.941 58.821H165.896ZM144.252 34.5033C143.233 29.6652 138.395 20.4982 125.663 20.4982C112.931 20.4982 108.22 29.6652 107.202 34.5033H144.252Z" fill="#E12619"/>
<path d="M175.954 2.801H198.871V11.7133H198.998H199.253C204.091 5.47468 212.24 0 224.717 0C253.745 0 264.567 25.4637 264.567 44.4341C264.567 67.988 248.143 87.213 224.844 87.213C210.075 87.213 203.2 80.2105 200.272 77.0276V110.767L175.827 111.531V2.801H175.954ZM240.25 43.6702C240.25 33.994 233.247 22.79 219.751 22.79C206.383 22.79 199.253 33.994 199.253 43.6702C199.253 53.983 206.892 64.4231 219.751 64.4231C232.483 64.4231 240.25 53.983 240.25 43.6702Z" fill="#E12619"/>
<path d="M357.892 84.412H333.447V75.6271H333.192C329.118 83.5208 318.932 87.213 309.383 87.213C283.538 87.213 268.387 66.9694 268.387 43.5429C268.387 16.806 287.612 0 309.383 0C322.752 0 330.264 6.49323 333.192 11.4586H333.447V2.801L357.892 2.67368V84.412ZM312.948 64.4231C328.227 64.4231 333.447 51.4366 333.447 43.5429C333.447 33.7393 326.699 22.79 312.821 22.79C298.816 22.79 292.705 34.5033 292.705 43.7975C292.705 51.4366 298.307 64.4231 312.948 64.4231Z" fill="#E12619"/>
</svg>
