<svg width="100%" height="auto" viewBox="0 0 206 128" fill="none" xmlns="http://www.w3.org/2000/svg">
<path d="M192.705 99.1803C192.705 92.377 198.197 86.8852 205 86.8852V74.0984H184.918V124.262H205V111.475C198.197 111.475 192.705 105.984 192.705 99.1803Z" fill="#AF6C1B"/>
<path d="M6.63934 126.803V81.5574H0V71.8033H24.3443V81.5574H17.7049V126.803H6.63934Z" fill="black"/>
<path d="M38.1967 71.8033H27.2131V126.803H38.1967V71.8033Z" fill="black"/>
<path d="M69.1803 102.459V116.967C69.1803 123.77 65.8196 127.213 58.9344 127.213H52.2131C45.4098 127.213 41.9672 123.852 41.9672 116.967V81.5574C41.9672 74.7541 45.3278 71.3115 52.2131 71.3115H58.7704C65.5737 71.3115 69.0163 74.6721 69.0163 81.5574V94.4262H58.1967V82.7049C58.1967 81.3934 57.5409 80.7377 56.2295 80.7377H54.9999C53.6885 80.7377 53.0327 81.3934 53.0327 82.7049V115.82C53.0327 117.131 53.6885 117.787 54.9999 117.787H56.3934C57.7049 117.787 58.3606 117.131 58.3606 115.82V102.459H69.1803Z" fill="black"/>
<path d="M89.5082 126.803L83.8525 100.738V126.803H72.8689V71.8033H83.8525V97.623L90 71.8033H101.393L94.1804 98.7705L101.066 126.803H89.5082Z" fill="black"/>
<path d="M123.607 71.8033V81.5574H114.18V93.9344H123.279V103.77H114.18V116.967H123.771V126.803H103.197V71.8033H123.607Z" fill="black"/>
<path d="M132.787 126.803V81.5574H126.148V71.8033H150.492V81.5574H143.853V126.803H132.787Z" fill="black"/>
<path d="M179.098 106.885V117.049C179.098 123.852 175.738 127.295 168.852 127.295H162.705C155.902 127.295 152.459 123.934 152.459 117.049V105.328H163.197V115.984C163.197 117.295 163.852 117.951 165.164 117.951H166.148C167.459 117.951 168.115 117.295 168.115 115.984V109.426C168.115 107.705 167.541 106.803 166.23 105.902L156.803 98.9344C153.443 96.4754 152.377 94.2623 152.377 90.3279V81.5574C152.377 74.7541 155.738 71.3115 162.623 71.3115H168.607C175.41 71.3115 178.852 74.6721 178.852 81.5574V91.6393H168.115V82.6229C168.115 81.3115 167.459 80.6557 166.148 80.6557H165.246C163.934 80.6557 163.279 81.3115 163.279 82.6229V87.7869C163.279 89.5082 163.852 90.4098 165.164 91.3115L174.59 98.2787C178.115 100.656 179.098 102.787 179.098 106.885Z" fill="black"/>
<path d="M43.4426 48.3607H30.2459V43.3607H30.082C27.2131 49.3443 21.4754 49.8361 17.9508 49.8361C15.082 49.8361 8.36065 49.1803 4.18033 43.9344C0.491803 39.3443 0 35.9836 0 29.5902V1.63934H14.0164V27.541C14.0164 30.7377 14.0164 36.8852 21.4754 36.8852C25.4918 36.8852 29.5082 34.7541 29.5082 27.377V1.63934H43.4426V48.3607Z" fill="#E32819"/>
<path d="M95.082 33.6885C92.7869 38.9344 89.5082 42.9508 85.5738 45.6557C81.7213 48.4426 77.0492 49.8361 72.2951 49.8361C58.9345 49.8361 47.541 38.9344 47.541 25.082C47.459 12.0492 57.705 0 71.9672 0C86.2295 0 96.6394 11.3115 96.6394 25.5738C96.6394 27.459 96.4754 28.1967 96.3115 29.2623H61.2295C62.0492 34.8361 66.7213 38.1148 72.2131 38.1148C76.4754 38.1148 78.7705 36.1475 80.7377 33.7705H95.082V33.6885ZM82.705 19.8361C82.1312 17.0492 79.3443 11.8033 72.0492 11.8033C64.8361 11.8033 62.0492 17.0492 61.3935 19.8361H82.705Z" fill="#E32819"/>
<path d="M100.82 1.63935H113.934V6.80328H114.016H114.18C116.967 3.27869 121.557 0.0819702 128.771 0.0819702C145.41 0.0819702 151.639 14.6721 151.639 25.4918C151.639 38.9344 142.213 50 128.852 50C120.41 50 116.475 45.9836 114.754 44.1803V63.9344H100.82V1.63935ZM137.623 25C137.623 19.4262 133.607 13.0328 125.902 13.0328C118.197 13.0328 114.18 19.4262 114.18 25C114.18 30.9016 118.525 36.8852 125.902 36.8852C133.279 36.8852 137.623 30.9016 137.623 25Z" fill="#E32819"/>
<path d="M205 48.3607H190.984V43.2787H190.82C188.443 47.8689 182.623 49.918 177.131 49.918C162.295 49.918 153.607 38.2787 153.607 24.918C153.689 9.59016 164.754 0 177.213 0C184.918 0 189.18 3.68852 190.902 6.55738H191.066V1.63934H205.082V48.3607H205ZM179.344 36.8852C188.115 36.8852 191.066 29.5082 191.066 24.918C191.066 19.2623 187.213 13.0328 179.262 13.0328C171.23 13.0328 167.705 19.7541 167.705 25.082C167.705 29.5082 170.902 36.8852 179.344 36.8852Z" fill="#E32819"/>
</svg>
