<svg width="100%" height="auto" viewBox="0 0 597 170" fill="none" xmlns="http://www.w3.org/2000/svg">
<path d="M75.8817 142.881H52.8371V134.224H52.5825C47.617 144.664 37.5589 145.555 31.4476 145.555C26.4822 145.555 14.6416 144.409 7.51178 135.242C0.891228 127.094 0 121.237 0 110.033V61.2702H24.4451V106.468C24.4451 112.07 24.4451 122.765 37.5589 122.765C44.5614 122.765 51.5639 119.073 51.5639 106.086V61.2702H76.009V142.881H75.8817Z" fill="#E12619"/>
<path d="M165.896 117.29C161.949 126.457 156.22 133.46 149.217 138.17C142.469 143.009 134.321 145.555 125.918 145.555C102.491 145.555 82.6295 126.584 82.6295 102.267C82.6295 79.4767 100.581 58.4692 125.408 58.4692C150.236 58.4692 168.569 78.2035 168.569 103.031C168.569 106.214 168.315 107.614 167.933 109.524H106.947C108.475 119.2 116.496 124.929 126.045 124.929C133.557 124.929 137.504 121.492 140.941 117.29H165.896ZM144.252 92.9725C143.233 88.1344 138.395 78.9674 125.663 78.9674C112.931 78.9674 108.221 88.1344 107.202 92.9725H144.252Z" fill="#E12619"/>
<path d="M175.954 61.2702H198.871V70.1825H198.998H199.253C204.091 63.9439 212.24 58.4692 224.717 58.4692C253.745 58.4692 264.567 83.9329 264.567 102.903C264.567 126.457 248.143 145.682 224.844 145.682C210.075 145.682 203.2 138.68 200.272 135.497V169.236L175.827 170V61.2702H175.954ZM240.25 102.139C240.25 92.4632 233.247 81.2592 219.751 81.2592C206.383 81.2592 199.253 92.4632 199.253 102.139C199.253 112.452 206.892 122.892 219.751 122.892C232.483 122.892 240.25 112.452 240.25 102.139Z" fill="#E12619"/>
<path d="M357.892 142.881H333.447V134.096H333.192C329.118 141.99 318.932 145.682 309.383 145.682C283.538 145.682 268.387 125.439 268.387 102.012C268.387 75.2752 287.612 58.4692 309.383 58.4692C322.752 58.4692 330.264 64.9624 333.192 69.9279H333.447V61.2702L357.892 61.1429V142.881ZM312.948 122.892C328.227 122.892 333.447 109.906 333.447 102.012C333.447 92.2085 326.699 81.2592 312.821 81.2592C298.816 81.2592 292.705 92.9725 292.705 102.267C292.705 109.906 298.307 122.892 312.948 122.892Z" fill="#E12619"/>
<path d="M462.802 78.7128C462.165 83.8055 459.492 90.6807 449.179 90.6807H436.956L439.885 66.6176H452.107C462.293 66.7449 463.439 73.6201 462.802 78.7128ZM484.701 102.903C483.682 111.434 484.191 118.054 493.231 118.054C498.069 118.054 501.379 116.399 503.289 115.38L506.345 90.2988C504.562 89.2802 501.761 87.6251 496.923 87.6251C488.011 87.6251 485.847 94.3729 484.701 102.903ZM596.359 50.0662V153.958C596.359 162.361 589.611 169.109 581.208 169.109H406.909C398.506 169.109 391.758 162.361 391.758 153.958V50.0662C391.758 41.6632 398.506 34.9153 406.909 34.9153H581.208C589.611 35.0426 596.359 41.7905 596.359 50.0662ZM473.879 78.7128C475.279 67.5088 470.441 57.3233 452.871 57.3233H430.972L422.569 125.693H432.755L435.81 100.102H447.524C465.221 100.102 472.605 89.9168 473.879 78.7128ZM517.931 80.1133H511.947L509.91 83.8055C506.217 80.8772 501.761 79.0947 495.65 79.0947C482.409 79.0947 476.298 88.007 474.515 102.903C472.733 117.799 476.552 126.712 489.793 126.712C495.905 126.712 500.743 124.929 505.072 122.001L506.345 125.693H512.329L517.931 80.1133ZM565.675 80.1133H555.49L551.161 115.508C548.487 116.908 545.177 118.181 540.466 118.181C535.628 118.181 533.591 116.144 534.1 111.434L537.92 80.2406H527.734L523.787 112.452C522.642 121.237 526.079 126.966 537.665 126.966C541.612 126.966 545.941 125.948 550.27 123.911L549.506 130.404C548.869 136.388 546.323 141.099 536.265 141.099C531.681 141.099 526.843 140.208 522.26 138.425L521.114 147.465C525.061 148.865 530.408 149.756 535.246 149.756C554.344 149.756 558.673 140.335 560.073 129.131L565.675 80.1133ZM449.434 24.7298H550.27L545.686 5.63209C544.668 1.55791 540.593 -0.861141 536.647 0.284724L449.434 24.7298Z" fill="#490067"/>
</svg>
